<?xml version="1.0" encoding="UTF-8" standalone="no"?>
<svg
   xmlns:dc="http://purl.org/dc/elements/1.1/"
   xmlns:cc="http://creativecommons.org/ns#"
   xmlns:rdf="http://www.w3.org/1999/02/22-rdf-syntax-ns#"
   xmlns:svg="http://www.w3.org/2000/svg"
   xmlns="http://www.w3.org/2000/svg"
   xmlns:sodipodi="http://sodipodi.sourceforge.net/DTD/sodipodi-0.dtd"
   xmlns:inkscape="http://www.inkscape.org/namespaces/inkscape"
   width="16"
   height="16"
   viewBox="0 0 16 16"
   version="1.1"
   id="svg4"
   sodipodi:docname="eye-closed.svg"
   inkscape:version="0.92.3 (2405546, 2018-03-11)"
   inkscape:export-filename="D:\Users\Blackpearl\Desktop\BULLE\html\img\eye-closed.png"
   inkscape:export-xdpi="144"
   inkscape:export-ydpi="144">
  <metadata
     id="metadata10">
    <rdf:RDF>
      <cc:Work
         rdf:about="">
        <dc:format>image/svg+xml</dc:format>
        <dc:type
           rdf:resource="http://purl.org/dc/dcmitype/StillImage" />
        <dc:title />
      </cc:Work>
    </rdf:RDF>
  </metadata>
  <defs
     id="defs8" />
  <sodipodi:namedview
     pagecolor="#ffffff"
     bordercolor="#666666"
     borderopacity="1"
     objecttolerance="10"
     gridtolerance="10"
     guidetolerance="10"
     inkscape:pageopacity="0"
     inkscape:pageshadow="2"
     inkscape:window-width="1920"
     inkscape:window-height="1017"
     id="namedview6"
     showgrid="false"
     inkscape:zoom="16.857143"
     inkscape:cx="-2.8262711"
     inkscape:cy="7"
     inkscape:window-x="1912"
     inkscape:window-y="-8"
     inkscape:window-maximized="1"
     inkscape:current-layer="svg4" />
  <path
     d="m 14.822,1.889817 a 0.50027817,0.50027817 0 1 0 -0.707,-0.708 l -2.11,2.11 c -1.115,-0.773 -2.44,-1.33 -3.945,-1.33 -5.06,0 -8.06,6 -8.06,6 0,0 1.162,2.323 3.258,4.078 l -2.064,2.065 a 0.5,0.5 0 1 0 0.707,0.707 z m -9.962,8.549 1.432,-1.433 A 1.999,1.999 0 0 1 6,7.960817 c 0,-1.11 0.89,-2 2,-2 0.384,0 0.741,0.106 1.045,0.292 l 1.433,-1.433 A 3.98,3.98 0 0 0 8,3.960817 c -2.2,0 -4,1.8 -4,4 0,0.938 0.321,1.798 0.859,2.478 z m 7.005,-3.514 1.993,-1.992 a 14.873,14.873 0 0 1 2.142,3.028 c 0,0 -3,6 -7.94,6 a 6.609,6.609 0 0 1 -2.661,-0.57 l 1.565,-1.566 c 0.33,0.089 0.678,0.136 1.036,0.136 2.22,0 4,-1.78 4,-4 0,-0.358 -0.047,-0.705 -0.136,-1.036 z m -2.527,2.526 0.152,-0.151 a 1.996,1.996 0 0 1 -0.152,0.151 z"
     id="path2"
     style="fill:#ffffff;fill-opacity:1;fill-rule:evenodd;stroke:none"
     inkscape:connector-curvature="0" />
</svg>
