<?xml version="1.0" encoding="UTF-8" standalone="no"?>
<svg
   xmlns:dc="http://purl.org/dc/elements/1.1/"
   xmlns:cc="http://creativecommons.org/ns#"
   xmlns:rdf="http://www.w3.org/1999/02/22-rdf-syntax-ns#"
   xmlns:svg="http://www.w3.org/2000/svg"
   xmlns="http://www.w3.org/2000/svg"
   xmlns:sodipodi="http://sodipodi.sourceforge.net/DTD/sodipodi-0.dtd"
   xmlns:inkscape="http://www.inkscape.org/namespaces/inkscape"
   version="1.1"
   x="0px"
   y="0px"
   viewBox="0 0 50 50"
   xml:space="preserve"
   id="svg10"
   sodipodi:docname="noun_desktop fan_1205074.svg"
   width="50"
   height="50"
   inkscape:version="0.92.3 (2405546, 2018-03-11)"><metadata
     id="metadata16"><rdf:RDF><cc:Work
         rdf:about=""><dc:format>image/svg+xml</dc:format><dc:type
           rdf:resource="http://purl.org/dc/dcmitype/StillImage" /><dc:title></dc:title></cc:Work></rdf:RDF></metadata><defs
     id="defs14" /><sodipodi:namedview
     pagecolor="#ffffff"
     bordercolor="#666666"
     borderopacity="1"
     objecttolerance="10"
     gridtolerance="10"
     guidetolerance="10"
     inkscape:pageopacity="0"
     inkscape:pageshadow="2"
     inkscape:window-width="1920"
     inkscape:window-height="1017"
     id="namedview12"
     showgrid="false"
     inkscape:zoom="7.552"
     inkscape:cx="43.3552"
     inkscape:cy="16.272153"
     inkscape:window-x="1912"
     inkscape:window-y="-8"
     inkscape:window-maximized="1"
     inkscape:current-layer="svg10" /><path
     id="path2"
     d="m 30.920269,40.748333 -0.514518,-1.094744 c 3.583025,-1.692329 6.596363,-4.444688 8.624058,-7.852902 l 1.047012,0.635398 c -1.490861,2.538494 -4.224003,5.974603 -9.156552,8.312248 z m 11.176807,-7.958904 1.095985,0.523196 c -1.139378,2.389097 -4.129778,7.73326 -11.431588,10.623237 l -0.438889,-1.130698 c 4.708765,-1.827468 8.588723,-5.43467 10.774492,-10.015735 z M 34.59132,10.636661 34.003034,11.692971 C 30.53717,9.7712797 26.54501,8.9313141 22.593763,9.2728792 l -0.09546,-1.2212039 c 2.93089,-0.2696564 7.316067,-0.056412 12.093021,2.5849857 z M 21.605642,6.2056115 21.390536,5.0104425 C 23.994738,4.5417977 30.080303,3.8518483 36.689684,8.0932089 L 36.02639,9.1104655 C 31.795568,6.3525275 26.600801,5.3061356 21.605642,6.2056115 Z M 11.244002,33.901531 10.174674,34.499735 C 8.7024098,31.951323 7.059673,27.879196 7.4582695,22.435848 l 1.205707,0.09175 C 8.3701428,26.47946 9.2789178,30.457362 11.244002,33.901531 Z M 7.8773225,36.77849 C 6.361045,34.610077 3.1865347,29.373776 4.2707403,21.594644 l 1.2007473,0.176051 c -0.7327219,4.998259 0.4928213,10.152113 3.401395,14.312266 z M 25.055389,21.692588 c 1.394776,0.0013 2.524235,1.133178 2.522376,2.527954 -0.0013,1.394777 -1.133179,2.524236 -2.528576,2.522376 -1.394776,-0.0018 -2.523614,-1.133798 -2.522375,-2.528574 0.0018,-1.394776 1.134418,-2.523616 2.528575,-2.521756 z m -3.472683,2.520516 c -0.0025,1.916732 1.549131,3.471443 3.465244,3.473923 1.916112,0.0025 3.471444,-1.549132 3.473923,-3.465245 0.0025,-1.916113 -1.549132,-3.471443 -3.465244,-3.473923 -1.916113,-0.0025 -3.471444,1.549132 -3.473923,3.465245 z M 11.043155,10.180414 c 8.147974,-3.506778 13.47168,4.416171 14.030831,5.66899 -0.349624,-0.0013 -6.034733,0.0099 -7.952706,5.693168 -2.18267,-0.621141 -7.9080722,-0.505219 -9.5731251,-2.822408 -2.0307943,-2.658753 0.4934408,-7.41835 3.4950001,-8.53975 z m 21.386571,13.760554 c 0.153116,4.074606 -3.025735,7.502037 -7.100341,7.654532 -4.073988,0.152496 -7.501417,-3.026975 -7.653914,-7.101581 -0.152495,-4.073988 3.026356,-7.500798 7.100342,-7.654533 4.074608,-0.152496 7.501418,3.026975 7.653913,7.101582 z m 7.761156,-10.089503 c 3.344984,0.02542 5.559269,4.936269 4.605242,7.994859 -2.304171,8.902392 -12.453803,7.878936 -13.189626,7.578905 0.0025,-0.0049 0.0037,-0.0075 0.0062,-0.0124 1.197029,-1.508838 3.195589,-5.195387 0.478564,-9.726241 1.827467,-1.340845 5.246839,-5.939267 8.099621,-5.835124 z M 25.652353,42.588818 c -1.849164,2.787073 -7.17163,1.957647 -9.212343,-0.512038 -5.884717,-6.451926 -0.407275,-13.937846 0.720324,-15.064205 1.170372,3.30779 4.352943,5.633657 8.028333,5.572286 0.108483,2.245901 2.117581,7.661352 0.463686,10.003957 z M 16.8758,22.419112 c -0.379379,1.708446 -0.115301,3.020775 -0.02728,3.457185 -6.588923,6.938548 -3.793792,14.138693 -1.115821,16.889813 2.886877,2.949487 8.289311,3.746059 10.747218,0.363262 1.80825,-2.772816 0.1215,-7.391696 -0.388059,-10.60712 1.81259,-0.225025 3.43549,-1.024076 4.691408,-2.206226 9.561348,1.867141 14.128155,-4.477543 14.97556,-8.252737 0.892037,-4.029354 -1.391677,-8.9898 -5.568568,-9.199326 -3.379698,0 -6.467423,4.217184 -8.633355,6.085565 C 30.256974,17.347085 28.379914,16.241802 26.256755,15.935571 21.8598,7.3660652 14.107323,7.6505998 10.622242,9.2865175 6.8910596,11.051374 4.3717833,15.895897 6.7664597,19.325188 8.8691628,22.034773 14.546213,21.902734 16.8758,22.419112 Z"
     inkscape:connector-curvature="0"
     style="stroke-width:1" /></svg>