<?xml version="1.0" encoding="UTF-8" standalone="no"?>
<!-- Created with Inkscape (http://www.inkscape.org/) -->

<svg
   xmlns:dc="http://purl.org/dc/elements/1.1/"
   xmlns:cc="http://creativecommons.org/ns#"
   xmlns:rdf="http://www.w3.org/1999/02/22-rdf-syntax-ns#"
   xmlns:svg="http://www.w3.org/2000/svg"
   xmlns="http://www.w3.org/2000/svg"
   xmlns:sodipodi="http://sodipodi.sourceforge.net/DTD/sodipodi-0.dtd"
   xmlns:inkscape="http://www.inkscape.org/namespaces/inkscape"
   width="64mm"
   height="64mm"
   viewBox="0 0 64.000001 63.999998"
   version="1.1"
   id="svg8"
   inkscape:version="0.92.3 (2405546, 2018-03-11)"
   sodipodi:docname="favicon.svg"
   inkscape:export-filename="D:\Users\Blackpearl\Desktop\BULLE\html\img\src\favicon.png"
   inkscape:export-xdpi="101.6"
   inkscape:export-ydpi="101.6">
  <defs
     id="defs2" />
  <sodipodi:namedview
     id="base"
     pagecolor="#ffffff"
     bordercolor="#666666"
     borderopacity="1.0"
     inkscape:pageopacity="0.0"
     inkscape:pageshadow="2"
     inkscape:zoom="0.49497475"
     inkscape:cx="-310.50212"
     inkscape:cy="-565.38054"
     inkscape:document-units="mm"
     inkscape:current-layer="layer1"
     showgrid="false"
     inkscape:snap-global="false"
     fit-margin-top="0"
     fit-margin-left="0"
     fit-margin-right="0"
     fit-margin-bottom="0"
     inkscape:window-width="1920"
     inkscape:window-height="1017"
     inkscape:window-x="1912"
     inkscape:window-y="-8"
     inkscape:window-maximized="1" />
  <metadata
     id="metadata5">
    <rdf:RDF>
      <cc:Work
         rdf:about="">
        <dc:format>image/svg+xml</dc:format>
        <dc:type
           rdf:resource="http://purl.org/dc/dcmitype/StillImage" />
        <dc:title></dc:title>
      </cc:Work>
    </rdf:RDF>
  </metadata>
  <g
     inkscape:label="Calque 1"
     inkscape:groupmode="layer"
     id="layer1"
     transform="translate(-346.72977,185.21202)">
    <flowRoot
       xml:space="preserve"
       id="flowRoot1527"
       style="font-style:normal;font-variant:normal;font-weight:normal;font-stretch:normal;font-size:40px;line-height:1.25;font-family:Impact;-inkscape-font-specification:Impact;letter-spacing:0px;word-spacing:0px;fill:#000000;fill-opacity:1;stroke:none"
       transform="matrix(0.26458333,0,0,0.26458333,-0.52916663,0)"><flowRegion
         id="flowRegion1529"><rect
           id="rect1531"
           width="531.42859"
           height="68.571426"
           x="105.71429"
           y="-397.48032" /></flowRegion><flowPara
         id="flowPara1533" /></flowRoot>    <path
       style="fill:#4bdf2a;fill-opacity:1;stroke:#005e00;stroke-width:0.49999997;stroke-miterlimit:4;stroke-dasharray:none;stroke-opacity:1"
       d="m 376.0465,-140.71917 0.1322,-7.87684 c 0.26025,-2.11451 1.53075,-6.74373 2.43,-8.85474 1.00548,-2.3606 2.2431,-4.1917 3.72777,-5.51474 l 1.01778,-0.90666 1.10072,0.67626 c 2.07075,1.27186 4.7326,1.06106 7.68189,-0.60813 1.98533,-1.1236 3.40889,-2.38211 5.6851,-5.02668 1.16307,-1.35122 2.37152,-2.69389 2.68535,-2.98379 l 0.5701,-0.52721 -0.5701,-0.13984 c -0.31383,-0.0771 -1.65765,-0.57365 -2.98634,-1.10322 -3.39779,-1.35425 -4.77754,-1.70124 -6.77641,-1.7056 -3.68566,-0.008 -6.61386,1.99709 -8.08359,5.53411 -0.45884,1.10433 -0.90457,3.25992 -0.67402,3.25992 0.0565,0 0.76652,-0.43052 1.57775,-0.95678 2.57879,-1.67299 6.62009,-3.12414 9.93007,-3.56556 0.66429,-0.0883 1.38894,-0.21892 1.61033,-0.2902 0.29715,-0.0957 0.34576,-0.0566 0.185,0.14987 -0.11998,0.15367 -2.15832,1.14479 -4.5297,2.20245 -8.25929,3.6837 -9.13415,4.2272 -11.18218,6.94337 -1.44814,1.92048 -2.67498,4.66396 -3.56877,7.98057 l -0.67585,2.50806 -0.14018,-1.80364 c -0.19609,-2.52505 -0.80902,-5.54278 -1.49299,-7.3536 -0.91403,-2.41993 -2.126,-4.18062 -5.76947,-8.38025 -1.86575,-2.15065 -4.16968,-4.82558 -5.1197,-5.94437 -1.66893,-1.96534 -1.6967,-2.01619 -0.82149,-1.49498 2.84473,1.69399 7.02523,5.65176 8.84384,8.37278 0.59996,0.89775 1.1614,1.63262 1.24781,1.63262 0.26148,0 0.42655,-1.61599 0.34334,-3.36193 -0.20908,-4.3866 -3.1523,-8.19373 -7.31462,-9.46153 -0.66432,-0.20221 -2.74775,-0.52576 -4.63001,-0.71893 -1.88225,-0.19308 -3.58106,-0.4264 -3.77484,-0.51796 -0.45593,-0.21559 -0.44629,-0.13778 0.13684,1.13796 0.26882,0.58818 0.91243,2.27813 1.43034,3.75507 1.20694,3.442 2.36125,5.59202 4.17687,7.78141 2.04485,2.46572 3.30982,3.19317 5.74596,3.30392 l 1.87729,0.0853 0.91853,1.50334 c 0.50524,0.82671 1.1328,2.08396 1.39447,2.79385 0.96107,2.60782 1.67731,7.29315 1.68131,10.99827 0,1.44316 -0.4388,7.54391 -0.87056,7.63789 z"
       id="path1332"
       inkscape:connector-curvature="0"
       sodipodi:nodetypes="ccccccccccccccsccccccccccccccscccccccccccccc" />
    <path
       style="opacity:1;vector-effect:none;fill:#cc710f;fill-opacity:1;stroke:#8d4e0a;stroke-width:0.80000001;stroke-linecap:butt;stroke-linejoin:miter;stroke-miterlimit:4;stroke-dasharray:none;stroke-dashoffset:0;stroke-opacity:1;marker:none;paint-order:markers fill stroke"
       d="m 372.91765,-142.66154 c -2.05171,0.002 -3.89447,0.97042 -4.64944,2.44459 -0.76333,-0.62233 -1.73734,-0.96495 -2.74506,-0.96561 -2.32463,4e-5 -4.20908,1.78267 -4.20908,3.98165 0.002,0.17191 0.0153,0.34355 0.0405,0.51381 l -0.60929,0.7373 1.70633,5.23313 4.94861,2.90092 9.38532,0.3412 11.20559,-0.68241 4.0386,-6.99625 -2.70599,-1.78815 c 0.0582,-0.23402 0.0882,-0.47396 0.0893,-0.71486 -4e-5,-1.69626 -1.40054,-3.07136 -3.12821,-3.07147 -0.44696,0.002 -0.88842,0.0968 -1.29466,0.27979 -1.00855,-1.02588 -2.72423,-1.64418 -4.5641,-1.64484 -1.31799,0.002 -2.59064,0.32099 -3.58308,0.89918 -0.94933,-0.92719 -2.3953,-1.46795 -3.92533,-1.46798 z"
       id="path2669"
       inkscape:connector-curvature="0"
       sodipodi:nodetypes="ccccccccccccccccccc" />
    <path
       sodipodi:nodetypes="ccccccsccsccccccsccsccccccc"
       inkscape:connector-curvature="0"
       id="path2653"
       style="font-style:normal;font-variant:normal;font-weight:bold;font-stretch:normal;font-size:medium;line-height:1.25;font-family:Corbel;-inkscape-font-specification:'Corbel Bold';letter-spacing:0px;word-spacing:0px;fill:#fdfdfd;fill-opacity:1;stroke:#000000;stroke-width:0.26458332;stroke-opacity:1"
       d="m 370.82087,-125.77494 c -1.651,0 -3.1369,-0.16509 -4.4577,-0.4953 -1.3208,-0.31447 -2.48436,-0.77046 -3.49069,-1.36796 -1.00632,-0.61323 -1.86327,-1.35225 -2.57084,-2.21706 -0.70757,-0.88054 -1.27363,-1.87113 -1.69818,-2.9718 -0.34592,-0.88054 -0.59749,-1.85541 -0.75474,-2.92463 -0.14151,-1.06922 -0.21227,-2.26423 -0.21227,-3.58503 v -18.58556 h 5.7785 v 18.06668 c 0,2.23277 0.26731,3.97811 0.80192,5.23602 0.59751,1.39942 1.47017,2.41361 2.61802,3.04256 1.14783,0.61323 2.50008,0.91984 4.05674,0.91984 h 10.36081 c 1.55666,0 2.90891,-0.30661 4.05675,-0.91984 1.14783,-0.62895 2.02051,-1.64314 2.61801,-3.04256 0.53461,-1.25791 0.85757,-3.00394 0.80191,-5.23602 v -18.06668 h 5.77851 v 18.58556 c 0,1.3208 -0.0787,2.51581 -0.23586,3.58503 -0.14152,1.06922 -0.38523,2.04409 -0.73116,2.92463 -0.42453,1.10067 -0.99846,2.09126 -1.72176,2.9718 -0.70757,0.86481 -1.58024,1.60383 -2.61801,2.21706 -1.02205,0.5975 -2.20133,1.05349 -3.53786,1.36796 -1.33652,0.33021 -2.83028,0.4953 -4.48129,0.4953 z" />
  </g>
</svg>
