<?xml version="1.0" encoding="UTF-8" standalone="no"?>
<svg
   xmlns:dc="http://purl.org/dc/elements/1.1/"
   xmlns:cc="http://creativecommons.org/ns#"
   xmlns:rdf="http://www.w3.org/1999/02/22-rdf-syntax-ns#"
   xmlns:svg="http://www.w3.org/2000/svg"
   xmlns="http://www.w3.org/2000/svg"
   xmlns:sodipodi="http://sodipodi.sourceforge.net/DTD/sodipodi-0.dtd"
   xmlns:inkscape="http://www.inkscape.org/namespaces/inkscape"
   version="1.1"
   x="0px"
   y="0px"
   viewBox="0 0 50 50"
   xml:space="preserve"
   id="svg18"
   sodipodi:docname="humidity.svg"
   width="50"
   height="50"
   inkscape:version="0.92.3 (2405546, 2018-03-11)"
   inkscape:export-filename="H:\Dropbox\11. RDS - le Dôme\!!! Bureau\Parcours Digital (en cours)\PDIG AuC\PROJET_BULLE\ARDUINO\BULLE\html\img\sprite\humidity.png"
   inkscape:export-xdpi="96"
   inkscape:export-ydpi="96"><metadata
     id="metadata24"><rdf:RDF><cc:Work
         rdf:about=""><dc:format>image/svg+xml</dc:format><dc:type
           rdf:resource="http://purl.org/dc/dcmitype/StillImage" /><dc:title /></cc:Work></rdf:RDF></metadata><defs
     id="defs22" /><sodipodi:namedview
     pagecolor="#ffffff"
     bordercolor="#666666"
     borderopacity="1"
     objecttolerance="10"
     gridtolerance="10"
     guidetolerance="10"
     inkscape:pageopacity="0"
     inkscape:pageshadow="2"
     inkscape:window-width="1920"
     inkscape:window-height="1017"
     id="namedview20"
     showgrid="false"
     inkscape:zoom="3.9333333"
     inkscape:cx="-22.398305"
     inkscape:cy="30"
     inkscape:window-x="3832"
     inkscape:window-y="-8"
     inkscape:window-maximized="1"
     inkscape:current-layer="svg18" /><g
     id="g854"
     transform="matrix(1.1303781,0,0,1.1303781,-3.9664179,-1.0111496)"
     style="stroke-width:0.88465971"><path
       d="m 19.225424,14.961017 c 2,0 3.6,-1.6 3.6,-3.6 0,-1.8000001 -2.9,-5.1000001 -3.2,-5.5000001 l -0.4,-0.4 -0.4,0.4 c -0.3,0.3 -3.2,3.7 -3.2,5.5000001 0,2 1.6,3.6 3.6,3.6 z m 0,-8.0000001 c 1.1,1.3 2.6,3.4000001 2.6,4.4000001 0,1.4 -1.2,2.6 -2.6,2.6 -1.4,0 -2.6,-1.2 -2.6,-2.6 0,-1 1.5,-3.0000001 2.6,-4.4000001 z"
       id="path2"
       inkscape:connector-curvature="0"
       style="stroke-width:0.88465971" /><path
       d="m 18.725424,21.761017 h 1 c 0,-1.5 1.2,-2.7 2.7,-2.7 1.4,0 2.7,1.3 2.7,2.7 0,1.5 -1.2,2.7 -2.7,2.7 H 7.8254237 v 1 H 22.425424 c 2,0 3.7,-1.7 3.7,-3.7 0,-2 -1.7,-3.7 -3.7,-3.7 -2,0 -3.7,1.7 -3.7,3.7 z"
       id="path4"
       inkscape:connector-curvature="0"
       style="stroke-width:0.88465971" /><path
       d="M 28.225424,30.561017 H 7.8254237 v 1 H 28.225424 c 2.2,0 4,1.8 4,4 0,2.2 -1.8,4 -4,4 -2.2,0 -4,-1.8 -4,-4 h -1 c 0,2.8 2.2,5 5,5 2.8,0 5,-2.2 5,-5 0,-2.8 -2.2,-5 -5,-5 z"
       id="path6"
       inkscape:connector-curvature="0"
       style="stroke-width:0.88465971" /><path
       d="m 11.025424,21.561017 c 2,0 3.6,-1.6 3.6,-3.6 0,-1.8 -3,-5.1 -3.3,-5.5 l -0.4,-0.4 -0.4,0.4 c -0.3,0.3 -3.2000003,3.7 -3.2000003,5.5 0,2 1.7,3.6 3.7000003,3.6 z m -0.1,-8 c 1.2,1.3 2.7,3.4 2.7,4.4 0,1.4 -1.2,2.6 -2.6,2.6 -1.5000003,0 -2.7000003,-1.2 -2.7000003,-2.6 0,-0.9 1.5,-3 2.6000003,-4.4 z"
       id="path8"
       inkscape:connector-curvature="0"
       style="stroke-width:0.88465971" /><path
       d="m 36.925424,14.661017 c -3.9,0 -7,3.1 -7,7 h 1 c 0,-3.3 2.7,-6 6,-6 3.3,0 6,2.7 6,6 0,3.3 -2.7,6 -6,6 H 7.8254237 v 1 H 36.925424 c 3.9,0 7,-3.1 7,-7 0,-3.9 -3.1,-7 -7,-7 z"
       id="path10"
       inkscape:connector-curvature="0"
       style="stroke-width:0.88465971" /></g></svg>