<?xml version="1.0" encoding="UTF-8" standalone="no"?>
<svg
   xmlns:dc="http://purl.org/dc/elements/1.1/"
   xmlns:cc="http://creativecommons.org/ns#"
   xmlns:rdf="http://www.w3.org/1999/02/22-rdf-syntax-ns#"
   xmlns:svg="http://www.w3.org/2000/svg"
   xmlns="http://www.w3.org/2000/svg"
   xmlns:sodipodi="http://sodipodi.sourceforge.net/DTD/sodipodi-0.dtd"
   xmlns:inkscape="http://www.inkscape.org/namespaces/inkscape"
   version="1.1"
   x="0px"
   y="0px"
   viewBox="0 0 50 50"
   xml:space="preserve"
   id="svg12"
   sodipodi:docname="light.svg"
   width="50"
   height="50"
   inkscape:version="0.92.3 (2405546, 2018-03-11)"
   inkscape:export-filename="H:\Dropbox\11. RDS - le Dôme\!!! Bureau\Parcours Digital (en cours)\PDIG AuC\PROJET_BULLE\ARDUINO\BULLE\html\img\sprite\light.png"
   inkscape:export-xdpi="96"
   inkscape:export-ydpi="96"><metadata
     id="metadata18"><rdf:RDF><cc:Work
         rdf:about=""><dc:format>image/svg+xml</dc:format><dc:type
           rdf:resource="http://purl.org/dc/dcmitype/StillImage" /><dc:title></dc:title></cc:Work></rdf:RDF></metadata><defs
     id="defs16" /><sodipodi:namedview
     pagecolor="#ffffff"
     bordercolor="#666666"
     borderopacity="1"
     objecttolerance="10"
     gridtolerance="10"
     guidetolerance="10"
     inkscape:pageopacity="0"
     inkscape:pageshadow="2"
     inkscape:window-width="1920"
     inkscape:window-height="1017"
     id="namedview14"
     showgrid="false"
     inkscape:zoom="5.6568543"
     inkscape:cx="40.280988"
     inkscape:cy="29.446686"
     inkscape:window-x="1912"
     inkscape:window-y="-8"
     inkscape:window-maximized="1"
     inkscape:current-layer="svg12" /><g
     id="g6"
     transform="matrix(0.36440678,0,0,0.36440678,6.7838674,2.8601695)"><path
       d="M 91.3,72.1 54.6,28 C 54,27.3 53.3,26.8 52.3,26.5 V 4.7 c 0,-1.2 -0.9,-2.2 -2.2,-2.2 -1.2,0 -2.2,1 -2.2,2.2 v 21.7 c -0.9,0.3 -1.7,0.8 -2.3,1.5 L 8.7,72.1 c -1,1.2 -1.2,2.7 -0.6,4 0.8,1.7 2.8,2.7 5.1,2.7 h 73.6 c 2.3,0 4.3,-1 5,-2.7 0.7,-1.3 0.5,-2.8 -0.5,-4 z m -4.5,2.4 H 13.2 c -0.3,0 -0.6,0 -0.7,-0.1 L 49,30.8 c 0.1,-0.1 0.5,-0.3 1,-0.3 0,0 0,0 0.1,0 0.6,0 1,0.2 1,0.3 l 36.4,43.6 c -0.1,0.1 -0.4,0.1 -0.7,0.1 z"
       id="path2"
       inkscape:connector-curvature="0" /><path
       d="m 63.4,81.2 c -0.8,0 -1.5,0.7 -1.5,1.5 0,6.6 -5.3,11.9 -11.9,11.9 -6.6,0 -11.9,-5.3 -11.9,-11.9 0,-0.8 -0.7,-1.5 -1.5,-1.5 -0.8,0 -1.5,0.7 -1.5,1.5 0,8.2 6.6,14.8 14.8,14.8 8.2,0 14.8,-6.6 14.8,-14.8 0.2,-0.8 -0.5,-1.5 -1.3,-1.5 z"
       id="path4"
       inkscape:connector-curvature="0" /></g><path
     style="fill:#00000f;fill-opacity:1;stroke:#000000;stroke-width:1px;stroke-linecap:butt;stroke-linejoin:miter;stroke-opacity:1"
     d="m 25.07051,39.980635 v 6.223517"
     id="path828"
     inkscape:connector-curvature="0" /><path
     style="fill:#00000f;fill-opacity:1;stroke:#000000;stroke-width:1px;stroke-linecap:butt;stroke-linejoin:miter;stroke-opacity:1"
     d="m 28.862126,39.027513 3.111758,5.389723"
     id="path828-2"
     inkscape:connector-curvature="0" /><path
     style="fill:#00000f;fill-opacity:1;stroke:#000000;stroke-width:1px;stroke-linecap:butt;stroke-linejoin:miter;stroke-opacity:1"
     d="m 31.744813,36.542572 5.389722,3.111759"
     id="path828-2-3"
     inkscape:connector-curvature="0" /><path
     style="fill:#00000f;fill-opacity:1;stroke:#000000;stroke-width:1px;stroke-linecap:butt;stroke-linejoin:miter;stroke-opacity:1"
     d="m 21.085814,39.248483 -3.111758,5.389723"
     id="path828-2-34"
     inkscape:connector-curvature="0" /><path
     style="fill:#00000f;fill-opacity:1;stroke:#000000;stroke-width:1px;stroke-linecap:butt;stroke-linejoin:miter;stroke-opacity:1"
     d="m 18.203127,36.763542 -5.389722,3.111759"
     id="path828-2-3-9"
     inkscape:connector-curvature="0" /></svg>