<?xml version="1.0" encoding="UTF-8" standalone="no"?>
<svg
   xmlns:dc="http://purl.org/dc/elements/1.1/"
   xmlns:cc="http://creativecommons.org/ns#"
   xmlns:rdf="http://www.w3.org/1999/02/22-rdf-syntax-ns#"
   xmlns:svg="http://www.w3.org/2000/svg"
   xmlns="http://www.w3.org/2000/svg"
   xmlns:sodipodi="http://sodipodi.sourceforge.net/DTD/sodipodi-0.dtd"
   xmlns:inkscape="http://www.inkscape.org/namespaces/inkscape"
   viewBox="0 0 50.000002 50"
   version="1.1"
   x="0px"
   y="0px"
   id="svg18"
   sodipodi:docname="sleep.svg"
   width="50"
   height="50"
   inkscape:export-filename="H:\Dropbox\11. RDS - le Dôme\!!! Bureau\Parcours Digital (en cours)\PDIG AuC\PROJET_BULLE\ARDUINO\BULLE\html\img\sprite\sleep.png"
   inkscape:export-xdpi="115.2"
   inkscape:export-ydpi="115.2"
   inkscape:version="0.92.3 (2405546, 2018-03-11)">
  <metadata
     id="metadata24">
    <rdf:RDF>
      <cc:Work
         rdf:about="">
        <dc:format>image/svg+xml</dc:format>
        <dc:type
           rdf:resource="http://purl.org/dc/dcmitype/StillImage" />
        <dc:title>Chronometer Pause</dc:title>
      </cc:Work>
    </rdf:RDF>
  </metadata>
  <defs
     id="defs22" />
  <sodipodi:namedview
     pagecolor="#ffffff"
     bordercolor="#666666"
     borderopacity="1"
     objecttolerance="10"
     gridtolerance="10"
     guidetolerance="10"
     inkscape:pageopacity="0"
     inkscape:pageshadow="2"
     inkscape:window-width="1920"
     inkscape:window-height="1017"
     id="namedview20"
     showgrid="false"
     inkscape:zoom="9.0652189"
     inkscape:cx="-14.298806"
     inkscape:cy="10.003897"
     inkscape:window-x="1912"
     inkscape:window-y="-8"
     inkscape:window-maximized="1"
     inkscape:current-layer="svg18" />
  <title
     id="title2">Chronometer Pause</title>
  <g
     transform="matrix(1.007894,0,0,1.007894,10.983569,-263.01107)"
     id="g12">
    <path
       d="m 10.972302,271.86531 c -1.4110024,-0.0311 -1.4110024,2.10149 0,2.07041 h 0.951294 v 1.09889 c -5.1871834,0.55389 -9.2460579,4.96029 -9.2460579,10.29137 0,5.7043 4.6469628,10.35102 10.3510179,10.35102 0.656277,0 1.297342,-0.0651 1.919773,-0.18299 -0.101145,-0.23801 -0.156699,-0.49951 -0.156699,-0.77437 v -1.18988 c -0.568616,0.12129 -1.157113,0.19107 -1.763074,0.19107 -4.6474703,0 -8.3948523,-3.747 -8.3948523,-8.39485 0,-4.64785 3.747382,-8.39485 8.3948523,-8.39485 4.64747,0 8.393832,3.747 8.393832,8.39485 0,0.23383 -0.01579,0.46359 -0.03437,0.69249 0.364708,-0.42805 0.900296,-0.70563 1.507312,-0.70563 h 0.479185 c -0.0031,-2.45041 -0.869187,-4.69933 -2.301912,-6.47305 l 0.746075,-0.82897 0.150627,0.15063 c 0.974307,1.0606 2.523426,-0.48852 1.46283,-1.46283 l -1.876305,-1.87631 c -1.133816,-0.93151 -2.364367,0.47952 -1.462829,1.46384 l 0.259815,0.25881 -0.737991,0.81987 c -1.558451,-1.29237 -3.493726,-2.145 -5.619815,-2.34336 v -1.08575 h 1.092827 c 1.350204,-0.0298 1.350204,-2.04067 0,-2.07041 z"
       style="color:#000000;font-style:normal;font-variant:normal;font-weight:normal;font-stretch:normal;font-size:medium;line-height:normal;font-family:sans-serif;font-variant-ligatures:normal;font-variant-position:normal;font-variant-caps:normal;font-variant-numeric:normal;font-variant-alternates:normal;font-feature-settings:normal;text-indent:0;text-align:start;text-decoration:none;text-decoration-line:none;text-decoration-style:solid;text-decoration-color:#000000;letter-spacing:normal;word-spacing:normal;text-transform:none;writing-mode:lr-tb;direction:ltr;text-orientation:mixed;dominant-baseline:auto;baseline-shift:baseline;text-anchor:start;white-space:normal;shape-padding:0;clip-rule:nonzero;display:inline;overflow:visible;visibility:visible;opacity:1;isolation:auto;mix-blend-mode:normal;color-interpolation:sRGB;color-interpolation-filters:linearRGB;solid-color:#000000;solid-opacity:1;vector-effect:none;fill:#000000;fill-opacity:1;fill-rule:nonzero;stroke:none;stroke-width:1.95492744;stroke-linecap:round;stroke-linejoin:miter;stroke-miterlimit:4;stroke-dasharray:none;stroke-dashoffset:9.99999905;stroke-opacity:1;paint-order:fill markers stroke;color-rendering:auto;image-rendering:auto;shape-rendering:auto;text-rendering:auto;enable-background:accumulate"
       id="path4"
       inkscape:connector-curvature="0" />
    <path
       d="m 13.009774,278.59307 c -0.572131,0.008 -1.028987,0.47925 -1.020042,1.05137 0.0051,1.27231 -3.74e-4,2.55718 0.01017,3.82439 -0.653653,0.36976 -1.106977,1.06545 -1.106977,1.8571 0,1.16421 0.969255,2.14016 2.136114,2.14016 1.16686,0 2.135105,-0.97595 2.135105,-2.14016 0,-0.78893 -0.449919,-1.48228 -1.099903,-1.85305 0.007,-1.26899 -0.0016,-2.55405 -0.0041,-3.82844 0.0092,-0.58399 -0.466353,-1.05994 -1.05036,-1.05137 z m 0.01917,6.28198 c 0.235782,0 0.450882,0.22039 0.450882,0.45088 0,0.23049 -0.2151,0.44684 -0.450882,0.44684 -0.235777,0 -0.450877,-0.21635 -0.450877,-0.44684 0,-0.23049 0.2151,-0.45088 0.450877,-0.45088 z"
       style="color:#000000;font-style:normal;font-variant:normal;font-weight:normal;font-stretch:normal;font-size:medium;line-height:normal;font-family:sans-serif;font-variant-ligatures:normal;font-variant-position:normal;font-variant-caps:normal;font-variant-numeric:normal;font-variant-alternates:normal;font-feature-settings:normal;text-indent:0;text-align:start;text-decoration:none;text-decoration-line:none;text-decoration-style:solid;text-decoration-color:#000000;letter-spacing:normal;word-spacing:normal;text-transform:none;writing-mode:lr-tb;direction:ltr;text-orientation:mixed;dominant-baseline:auto;baseline-shift:baseline;text-anchor:start;white-space:normal;shape-padding:0;clip-rule:nonzero;display:inline;overflow:visible;visibility:visible;opacity:1;isolation:auto;mix-blend-mode:normal;color-interpolation:sRGB;color-interpolation-filters:linearRGB;solid-color:#000000;solid-opacity:1;vector-effect:none;fill:#000000;fill-opacity:1;fill-rule:nonzero;stroke:none;stroke-width:2.58800673;stroke-linecap:round;stroke-linejoin:round;stroke-miterlimit:4;stroke-dasharray:none;stroke-dashoffset:0;stroke-opacity:1;paint-order:stroke fill markers;color-rendering:auto;image-rendering:auto;shape-rendering:auto;text-rendering:auto;enable-background:accumulate"
       id="path6"
       inkscape:connector-curvature="0" />
    <path
       style="color:#000000;font-style:normal;font-variant:normal;font-weight:normal;font-stretch:normal;font-size:medium;line-height:normal;font-family:sans-serif;font-variant-ligatures:normal;font-variant-position:normal;font-variant-caps:normal;font-variant-numeric:normal;font-variant-alternates:normal;font-feature-settings:normal;text-indent:0;text-align:start;text-decoration:none;text-decoration-line:none;text-decoration-style:solid;text-decoration-color:#000000;letter-spacing:normal;word-spacing:normal;text-transform:none;writing-mode:lr-tb;direction:ltr;text-orientation:mixed;dominant-baseline:auto;baseline-shift:baseline;text-anchor:start;white-space:normal;shape-padding:0;clip-rule:nonzero;display:inline;overflow:visible;visibility:visible;opacity:1;isolation:auto;mix-blend-mode:normal;color-interpolation:sRGB;color-interpolation-filters:linearRGB;solid-color:#000000;solid-opacity:1;vector-effect:none;fill:#000000;fill-opacity:1;fill-rule:nonzero;stroke:none;stroke-width:1.0352031;stroke-linecap:round;stroke-linejoin:round;stroke-miterlimit:4;stroke-dasharray:none;stroke-dashoffset:0;stroke-opacity:1;paint-order:normal;color-rendering:auto;image-rendering:auto;shape-rendering:auto;text-rendering:auto;enable-background:accumulate"
       d="m 16.771869,286.36102 c -0.5148,0 -0.943758,0.42895 -0.943758,0.94374 v 7.41631 c 0,0.51482 0.428958,0.94378 0.943758,0.94378 h 1.287634 c 0.514799,0 0.943756,-0.42896 0.943756,-0.94378 v -7.41631 c 0,-0.51479 -0.428957,-0.94374 -0.943756,-0.94374 z m 0.09168,1.03543 h 1.104232 v 7.23294 h -1.104217 z"
       id="path8"
       inkscape:connector-curvature="0" />
    <path
       style="color:#000000;font-style:normal;font-variant:normal;font-weight:normal;font-stretch:normal;font-size:medium;line-height:normal;font-family:sans-serif;font-variant-ligatures:normal;font-variant-position:normal;font-variant-caps:normal;font-variant-numeric:normal;font-variant-alternates:normal;font-feature-settings:normal;text-indent:0;text-align:start;text-decoration:none;text-decoration-line:none;text-decoration-style:solid;text-decoration-color:#000000;letter-spacing:normal;word-spacing:normal;text-transform:none;writing-mode:lr-tb;direction:ltr;text-orientation:mixed;dominant-baseline:auto;baseline-shift:baseline;text-anchor:start;white-space:normal;shape-padding:0;clip-rule:nonzero;display:inline;overflow:visible;visibility:visible;opacity:1;isolation:auto;mix-blend-mode:normal;color-interpolation:sRGB;color-interpolation-filters:linearRGB;solid-color:#000000;solid-opacity:1;vector-effect:none;fill:#000000;fill-opacity:1;fill-rule:nonzero;stroke:none;stroke-width:1.05661237;stroke-linecap:round;stroke-linejoin:round;stroke-miterlimit:4;stroke-dasharray:none;stroke-dashoffset:0;stroke-opacity:1;paint-order:normal;color-rendering:auto;image-rendering:auto;shape-rendering:auto;text-rendering:auto;enable-background:accumulate"
       d="m 22.896731,286.34956 c -0.520543,0 -0.955218,0.43466 -0.955218,0.9552 v 7.41631 c 0,0.52056 0.434675,0.95525 0.955218,0.95525 h 1.283814 c 0.520547,0 0.955221,-0.43469 0.955221,-0.95525 v -7.41631 c 0,-0.52054 -0.434674,-0.9552 -0.955221,-0.9552 z m 0.09935,1.05455 h 1.085126 v 7.21763 h -1.085126 z"
       id="path10"
       inkscape:connector-curvature="0" />
  </g>
</svg>
