<?xml version="1.0" encoding="UTF-8" standalone="no"?>
<svg
   xmlns:dc="http://purl.org/dc/elements/1.1/"
   xmlns:cc="http://creativecommons.org/ns#"
   xmlns:rdf="http://www.w3.org/1999/02/22-rdf-syntax-ns#"
   xmlns:svg="http://www.w3.org/2000/svg"
   xmlns="http://www.w3.org/2000/svg"
   xmlns:sodipodi="http://sodipodi.sourceforge.net/DTD/sodipodi-0.dtd"
   xmlns:inkscape="http://www.inkscape.org/namespaces/inkscape"
   version="1.1"
   x="0px"
   y="0px"
   viewBox="0 0 50 50"
   enable-background="new 0 0 65 65"
   xml:space="preserve"
   id="svg8"
   sodipodi:docname="noun_soil moisture probe_1692416.svg"
   width="50"
   height="50"
   inkscape:export-filename="H:\Dropbox\11. RDS - le Dôme\!!! Bureau\Parcours Digital (en cours)\PDIG AuC\PROJET_BULLE\ARDUINO\BULLE\html\img\sprite\soil.png"
   inkscape:export-xdpi="96"
   inkscape:export-ydpi="96"
   inkscape:version="0.92.3 (2405546, 2018-03-11)"><metadata
     id="metadata14"><rdf:RDF><cc:Work
         rdf:about=""><dc:format>image/svg+xml</dc:format><dc:type
           rdf:resource="http://purl.org/dc/dcmitype/StillImage" /><dc:title></dc:title></cc:Work></rdf:RDF></metadata><defs
     id="defs12" /><sodipodi:namedview
     pagecolor="#ffffff"
     bordercolor="#666666"
     borderopacity="1"
     objecttolerance="10"
     gridtolerance="10"
     guidetolerance="10"
     inkscape:pageopacity="0"
     inkscape:pageshadow="2"
     inkscape:window-width="1920"
     inkscape:window-height="1017"
     id="namedview10"
     showgrid="false"
     inkscape:zoom="2.9046154"
     inkscape:cx="32.5"
     inkscape:cy="40.625"
     inkscape:window-x="1912"
     inkscape:window-y="-8"
     inkscape:window-maximized="1"
     inkscape:current-layer="svg8" /><path
     d="m 40.484333,30.447142 c -0.378715,-3.706797 -5.400425,-6.653674 -11.53648,-6.653674 -0.966097,0 -2.145845,-0.911282 -2.145845,-1.975172 0,-1.06389 1.18037,-1.975796 2.145845,-1.975796 6.382094,0 11.573854,-3.185442 11.573854,-7.100283 0,-4.1876659 -5.973482,-7.4677862 -13.599481,-7.4677862 -7.350683,0 -13.149134,3.0502751 -13.559616,7.0205542 -4.2923108,0.208667 -7.7175635,3.516193 -7.7181865,7.563088 0,0 0,0 0,6.22e-4 v 5.743014 c 0,1.083821 0.8820073,1.96583 1.9652069,1.96583 h 0.3070831 v 14.530696 c 0,0.01308 0.00623,0.02304 0.00748,0.0355 -0.00124,0.102156 0.023669,0.205552 0.090941,0.292756 l 1.6475344,2.117813 c 0.00995,0.01308 0.025542,0.01744 0.036753,0.02989 0.016195,0.01682 0.026163,0.038 0.045467,0.05233 0.01806,0.0137 0.03924,0.02056 0.059176,0.03177 0.016195,0.0099 0.031147,0.01868 0.047964,0.02616 0.057932,0.02429 0.1177254,0.04048 0.1793921,0.04048 v 0 0 c 0.06104,0 0.12084,-0.01619 0.17939,-0.04048 0.01744,-0.0075 0.03239,-0.01682 0.04921,-0.02616 0.0193,-0.01121 0.03986,-0.01744 0.05855,-0.03177 0.01868,-0.01433 0.02803,-0.03489 0.0436,-0.05108 0.01183,-0.01245 0.02741,-0.01682 0.038,-0.03052 l 1.647535,-2.117814 c 0.0679,-0.0872 0.09281,-0.190603 0.09094,-0.29338 0.0012,-0.01245 0.0075,-0.02242 0.0075,-0.0355 V 27.568161 h 3.382896 v 14.530695 c 0,0.01308 0.0063,0.02305 0.0075,0.0355 -0.0012,0.102156 0.02368,0.205553 0.09094,0.292757 l 1.647535,2.117814 c 0.0099,0.01308 0.02553,0.01744 0.03675,0.02989 0.01619,0.01682 0.02616,0.038 0.04547,0.05233 0.01806,0.0137 0.03924,0.02056 0.05917,0.03177 0.0162,0.0099 0.03114,0.01868 0.04797,0.02616 0.05793,0.02429 0.117726,0.04049 0.179391,0.04049 v 0 0 c 0.06166,0 0.121463,-0.01619 0.179392,-0.04049 0.01682,-0.0075 0.03177,-0.0162 0.04796,-0.02616 0.01931,-0.01121 0.04049,-0.01744 0.05918,-0.03177 0.01931,-0.01433 0.02928,-0.0355 0.04547,-0.05233 0.01121,-0.01246 0.02616,-0.01682 0.03675,-0.02989 l 1.647462,-2.11781 c 0.06852,-0.08846 0.09406,-0.193717 0.09157,-0.297116 6.23e-4,-0.01121 0.0063,-0.01993 0.0063,-0.03114 v -14.5307 h 0.213649 c 1.083823,0 1.965208,-0.882008 1.965208,-1.96583 v -5.743014 c 0,-4.021355 -3.381651,-7.312064 -7.635343,-7.559972 0.444741,-3.3959775 5.928011,-6.0905845 12.621549,-6.0905845 6.983803,0 12.66515,2.9306809 12.66515,6.5334565 0,3.399715 -4.772556,6.165954 -10.639524,6.165954 -1.424541,0 -3.080173,1.27131 -3.080173,2.910125 0,1.638814 1.655632,2.909503 3.080173,2.909503 5.612208,0 10.211602,2.532655 10.601528,5.728687 -2.134631,0.231091 -3.796493,1.90105 -3.796493,3.922939 0,0.257874 0.209291,0.467164 0.467166,0.467164 h 0.952393 v 3.202259 c 0,0.954886 0.820964,1.732249 1.830664,1.732249 h 2.102241 c 1.009076,0 1.83004,-0.777363 1.83004,-1.732249 v -3.202259 h 0.952395 c 0.257874,0 0.467164,-0.20929 0.467164,-0.467164 0,-2.046182 -1.70048,-3.733582 -3.87124,-3.932283 z M 11.211161,41.979886 10.030168,43.49786 8.8504203,41.980508 V 27.568161 h 2.3607407 z m 7.611673,0.0019 -1.179748,1.516729 -1.180371,-1.517976 V 27.568161 H 18.82221 V 41.981754 Z M 21.00169,25.602328 c 0,0.568695 -0.462805,1.0315 -1.030877,1.0315 H 7.6096304 c -0.5686953,0 -1.0308771,-0.462805 -1.0308771,-1.0315 v -5.742391 c 0,-6.23e-4 0,-6.23e-4 0,-0.0012 6.23e-4,-0.568072 0.4628046,-1.030253 1.0308771,-1.030253 H 19.970813 c 0.568696,0 1.030877,0.462804 1.030877,1.030875 z M 20.722014,18.044192 C 20.4903,17.948267 20.236785,17.893453 19.970813,17.893453 H 7.6096304 c -0.2659724,0 -0.5194872,0.05419 -0.7512011,0.150739 0.8595834,-2.786172 3.6376567,-4.834846 6.9308577,-4.834846 3.294447,6.24e-4 6.073144,2.049298 6.932727,4.834846 z m 19.332528,13.317313 c 1.678678,0 3.07083,1.108115 3.322476,2.551343 h -6.645576 c 0.251647,-1.443228 1.643797,-2.551343 3.3231,-2.551343 z m 1.947142,6.687309 c 0,0.439758 -0.402385,0.797918 -0.89571,0.797918 h -2.102242 c -0.494572,0 -0.896333,-0.35816 -0.896333,-0.797918 v -3.202225 h 3.894909 v 3.202259 z"
     id="path2"
     inkscape:connector-curvature="0"
     style="stroke-width:1" /></svg>