<?xml version="1.0" encoding="UTF-8" standalone="no"?>
<svg
   xmlns:dc="http://purl.org/dc/elements/1.1/"
   xmlns:cc="http://creativecommons.org/ns#"
   xmlns:rdf="http://www.w3.org/1999/02/22-rdf-syntax-ns#"
   xmlns:svg="http://www.w3.org/2000/svg"
   xmlns="http://www.w3.org/2000/svg"
   xmlns:sodipodi="http://sodipodi.sourceforge.net/DTD/sodipodi-0.dtd"
   xmlns:inkscape="http://www.inkscape.org/namespaces/inkscape"
   width="16"
   height="16"
   viewBox="0 0 16 16"
   version="1.1"
   id="svg4"
   sodipodi:docname="sync.svg"
   inkscape:version="0.92.3 (2405546, 2018-03-11)"
   inkscape:export-filename="D:\Users\Blackpearl\Desktop\BULLE\html\img\src\sync.png"
   inkscape:export-xdpi="144"
   inkscape:export-ydpi="144">
  <metadata
     id="metadata10">
    <rdf:RDF>
      <cc:Work
         rdf:about="">
        <dc:format>image/svg+xml</dc:format>
        <dc:type
           rdf:resource="http://purl.org/dc/dcmitype/StillImage" />
        <dc:title />
      </cc:Work>
    </rdf:RDF>
  </metadata>
  <defs
     id="defs8" />
  <sodipodi:namedview
     pagecolor="#ffffff"
     bordercolor="#666666"
     borderopacity="1"
     objecttolerance="10"
     gridtolerance="10"
     guidetolerance="10"
     inkscape:pageopacity="0"
     inkscape:pageshadow="2"
     inkscape:window-width="1920"
     inkscape:window-height="1017"
     id="namedview6"
     showgrid="false"
     inkscape:zoom="14.75"
     inkscape:cx="-17.389831"
     inkscape:cy="8"
     inkscape:window-x="3832"
     inkscape:window-y="-8"
     inkscape:window-maximized="1"
     inkscape:current-layer="svg4" />
  <path
     d="M 12.204063,7.3999999 A 4.1152288,4.1499999 0 0 1 11.014117,11 4.3095866,4.3459999 0 0 1 5.6494451,11.54 L 6.8096422,10.4 2.5456702,9.8 3.140643,14 4.4396671,12.74 C 6.7798936,14.479999 10.09191,14.31 12.21398,12.2 a 5.8267673,5.8759999 0 0 0 1.725421,-4.46 z m -7.2190042,-2.4 a 4.3095866,4.3459999 0 0 1 5.3646722,-0.54 l -1.1601975,1.14 4.2639725,0.6 L 12.858533,2 11.559509,3.2599999 C 9.2192821,1.52 5.9072667,1.69 3.7752808,3.7999999 2.5456702,5.0299999 1.9903622,6.6499999 2.0597757,8.26 L 3.7951132,8.61 A 4.1350612,4.1699999 0 0 1 4.9850588,4.9999999 Z"
     id="path2"
     style="fill:#ffffff;fill-opacity:1;fill-rule:evenodd;stroke:none;stroke-width:1"
     inkscape:connector-curvature="0" />
</svg>
