<?xml version="1.0" encoding="UTF-8" standalone="no"?>
<svg
   xmlns:dc="http://purl.org/dc/elements/1.1/"
   xmlns:cc="http://creativecommons.org/ns#"
   xmlns:rdf="http://www.w3.org/1999/02/22-rdf-syntax-ns#"
   xmlns:svg="http://www.w3.org/2000/svg"
   xmlns="http://www.w3.org/2000/svg"
   xmlns:sodipodi="http://sodipodi.sourceforge.net/DTD/sodipodi-0.dtd"
   xmlns:inkscape="http://www.inkscape.org/namespaces/inkscape"
   version="1.1"
   x="0px"
   y="0px"
   viewBox="0 0 50 50"
   xml:space="preserve"
   id="svg16"
   sodipodi:docname="noun_jerrycan oil_2077185.svg"
   width="50"
   height="50"
   inkscape:export-filename="H:\Dropbox\11. RDS - le Dôme\!!! Bureau\Parcours Digital (en cours)\PDIG AuC\PROJET_BULLE\ARDUINO\BULLE\html\img\sprite\tank.png"
   inkscape:export-xdpi="96"
   inkscape:export-ydpi="96"
   inkscape:version="0.92.3 (2405546, 2018-03-11)"><metadata
     id="metadata22"><rdf:RDF><cc:Work
         rdf:about=""><dc:format>image/svg+xml</dc:format><dc:type
           rdf:resource="http://purl.org/dc/dcmitype/StillImage" /><dc:title></dc:title></cc:Work></rdf:RDF></metadata><defs
     id="defs20" /><sodipodi:namedview
     pagecolor="#ffffff"
     bordercolor="#666666"
     borderopacity="1"
     objecttolerance="10"
     gridtolerance="10"
     guidetolerance="10"
     inkscape:pageopacity="0"
     inkscape:pageshadow="2"
     inkscape:window-width="1920"
     inkscape:window-height="1017"
     id="namedview18"
     showgrid="false"
     inkscape:zoom="7.552"
     inkscape:cx="39.645337"
     inkscape:cy="30.843979"
     inkscape:window-x="1912"
     inkscape:window-y="-8"
     inkscape:window-maximized="1"
     inkscape:current-layer="svg16" /><g
     id="g842"
     transform="matrix(0.5236421,0,0,0.5236421,-1.1575669,-1.182105)"><path
       d="M 71.5,14.2 H 46.1 c -1.1,0 -2,0.5 -2.5,1.4 l -2.3,3.9 c -0.4,0.7 -0.4,1.6 0,2.2 0.4,0.7 1.1,1.1 1.9,1.1 h 25.4 c 1,0 2,-0.6 2.5,-1.5 l 2.3,-4 c 0.4,-0.7 0.4,-1.4 0,-2.1 -0.3,-0.6 -1,-1 -1.9,-1 z m 0.2,2.1 -2.3,4.1 C 69.2,20.7 68.9,21 68.6,21 H 43.2 C 43.1,21 43.1,20.8 43,20.8 v 0 c 0,0 -0.1,-0.1 0,-0.3 l 2.3,-3.9 c 0.2,-0.3 0.5,-0.4 0.8,-0.4 h 25.4 c 0.1,0 0.2,0 0.2,0 0.1,0.1 0.1,0.1 0,0.1 z"
       id="path2"
       inkscape:connector-curvature="0" /><path
       d="M 79.6,12.6 C 77.7,10.7 75.1,9.7 72.3,9.7 H 46.1 c -2.6,0 -5,1.3 -6.4,3.5 l -4,6.6 C 34.4,21.9 33,24 31.3,26 l -6.6,8.1 c -1.2,1.5 -1.9,3.4 -1.9,5.3 v 40.4 c 0,2.8 1.1,5.4 3.1,7.4 2,2 4.6,3.1 7.4,3.1 h 38.9 c 2.7,0 5.3,-1.1 7.3,-3.1 1.9,-2 3,-4.6 3,-7.4 v -60 c 0.1,-2.7 -1,-5.3 -2.9,-7.2 z m 1,67.2 c 0,4.7 -3.7,8.6 -8.2,8.6 h -39 c -4.7,0 -8.5,-3.9 -8.5,-8.6 V 39.4 c 0,-1.4 0.6,-2.9 1.5,-4 l 6.5,-8.1 c 1.7,-2.1 3.2,-4.2 4.5,-6.5 l 4,-6.6 c 0.9,-1.6 2.7,-2.5 4.7,-2.5 h 26.3 c 4.7,0 8.2,3.6 8.2,8.2 z"
       id="path4"
       inkscape:connector-curvature="0" /><path
       d="m 32.7,21.8 -5,-4 c -0.4,-0.3 -0.8,-0.5 -1.3,-0.5 -0.6,0 -1.2,0.3 -1.6,0.8 l -6.9,8.5 c -0.3,0.4 -0.5,1 -0.5,1.5 0.1,0.6 0.3,1 0.8,1.4 l 5,4 z M 19.5,28 c -0.1,0 -0.1,0 0,0 0,-0.1 0,-0.1 0,-0.1 l 6.9,-8.5 c 0,0 0,0 0.1,0 0,0 0,0 0.1,0 l 3.4,2.7 -7,8.7 z"
       id="path6"
       inkscape:connector-curvature="0" /><path
       style="fill:none;stroke:#000000;stroke-opacity:1"
       id="path835"
       d="m 52.8,31.9 -0.3,0.4 C 52,33.1 39.2,51.8 39.2,59.1 c 0,7.5 6.1,13.7 13.7,13.7 7.6,0 13.7,-6.1 13.7,-13.7 C 66.6,51.7 53.8,33 53.2,32.2 Z"
       inkscape:connector-curvature="0" /><path
       style="fill:none;stroke:#000000;stroke-opacity:1"
       id="path8"
       d="m 52.4,67.3 c 0,0.7 -0.6,1.3 -1.3,1.3 -0.1,0 -0.2,0 -0.3,0 -3.5,-0.7 -6.4,-3.4 -7.4,-6.9 -0.1,-0.4 0,-0.8 0.2,-1.1 0.3,-0.3 0.6,-0.5 1.1,-0.5 0.6,0 1.1,0.4 1.3,1 0.7,2.5 2.8,4.5 5.3,5 0.7,0 1.1,0.6 1.1,1.2 z"
       inkscape:connector-curvature="0" /></g></svg>