<?xml version="1.0" encoding="UTF-8" standalone="no"?>
<svg
   xmlns:dc="http://purl.org/dc/elements/1.1/"
   xmlns:cc="http://creativecommons.org/ns#"
   xmlns:rdf="http://www.w3.org/1999/02/22-rdf-syntax-ns#"
   xmlns:svg="http://www.w3.org/2000/svg"
   xmlns="http://www.w3.org/2000/svg"
   xmlns:sodipodi="http://sodipodi.sourceforge.net/DTD/sodipodi-0.dtd"
   xmlns:inkscape="http://www.inkscape.org/namespaces/inkscape"
   version="1.1"
   x="0px"
   y="0px"
   viewBox="0 0 50 50"
   enable-background="new 0 0 64 64"
   xml:space="preserve"
   id="svg18"
   sodipodi:docname="noun_Temperature_541883.svg"
   width="50"
   height="50"
   inkscape:export-filename="H:\Dropbox\11. RDS - le Dôme\!!! Bureau\Parcours Digital (en cours)\PDIG AuC\PROJET_BULLE\ARDUINO\BULLE\html\img\sprite\temp.png"
   inkscape:export-xdpi="96"
   inkscape:export-ydpi="96"
   inkscape:version="0.92.3 (2405546, 2018-03-11)"><metadata
     id="metadata24"><rdf:RDF><cc:Work
         rdf:about=""><dc:format>image/svg+xml</dc:format><dc:type
           rdf:resource="http://purl.org/dc/dcmitype/StillImage" /><dc:title></dc:title></cc:Work></rdf:RDF></metadata><defs
     id="defs22" /><sodipodi:namedview
     pagecolor="#ffffff"
     bordercolor="#666666"
     borderopacity="1"
     objecttolerance="10"
     gridtolerance="10"
     guidetolerance="10"
     inkscape:pageopacity="0"
     inkscape:pageshadow="2"
     inkscape:window-width="1920"
     inkscape:window-height="1017"
     id="namedview20"
     showgrid="false"
     inkscape:zoom="2.95"
     inkscape:cx="32"
     inkscape:cy="40"
     inkscape:window-x="1912"
     inkscape:window-y="-8"
     inkscape:window-maximized="1"
     inkscape:current-layer="svg18" /><g
     id="g12"
     transform="matrix(0.80443286,0,0,0.80443286,-0.74185152,-0.74185152)"
     style="stroke-width:1.24311185"><g
       id="g10"
       style="stroke-width:1.24311185"><path
         d="M 33,40.525 V 8 C 33,7.448 32.552,7 32,7 h -8 c -0.552,0 -1,0.448 -1,1 v 32.525 c -2.481,1.663 -4,4.476 -4,7.475 0,4.963 4.038,9 9,9 4.962,0 9,-4.037 9,-9 0,-2.999 -1.519,-5.812 -4,-7.475 z M 28,55 c -3.86,0 -7,-3.141 -7,-7 0,-2.484 1.342,-4.805 3.501,-6.056 C 24.81,41.766 25,41.436 25,41.079 V 9 h 6 v 32.079 c 0,0.356 0.19,0.687 0.499,0.865 C 33.658,43.195 35,45.516 35,48 c 0,3.859 -3.14,7 -7,7 z"
         id="path2"
         inkscape:connector-curvature="0"
         style="stroke-width:1.24311185" /><path
         d="m 40,17 h 4 c 0.553,0 1,-0.448 1,-1 0,-0.552 -0.447,-1 -1,-1 h -4 c -0.553,0 -1,0.448 -1,1 0,0.552 0.447,1 1,1 z"
         id="path4"
         inkscape:connector-curvature="0"
         style="stroke-width:1.24311185" /><path
         d="m 44,23 h -4 c -0.553,0 -1,0.448 -1,1 0,0.552 0.447,1 1,1 h 4 c 0.553,0 1,-0.448 1,-1 0,-0.552 -0.447,-1 -1,-1 z"
         id="path6"
         inkscape:connector-curvature="0"
         style="stroke-width:1.24311185" /><path
         d="m 44,31 h -4 c -0.553,0 -1,0.448 -1,1 0,0.552 0.447,1 1,1 h 4 c 0.553,0 1,-0.448 1,-1 0,-0.552 -0.447,-1 -1,-1 z"
         id="path8"
         inkscape:connector-curvature="0"
         style="stroke-width:1.24311185" /></g></g></svg>