<?xml version="1.0" encoding="UTF-8" standalone="no"?>
<svg
   xmlns:dc="http://purl.org/dc/elements/1.1/"
   xmlns:cc="http://creativecommons.org/ns#"
   xmlns:rdf="http://www.w3.org/1999/02/22-rdf-syntax-ns#"
   xmlns:svg="http://www.w3.org/2000/svg"
   xmlns="http://www.w3.org/2000/svg"
   xmlns:sodipodi="http://sodipodi.sourceforge.net/DTD/sodipodi-0.dtd"
   xmlns:inkscape="http://www.inkscape.org/namespaces/inkscape"
   viewBox="0 0 50.000002 50"
   version="1.1"
   x="0px"
   y="0px"
   id="svg16"
   sodipodi:docname="tempTh.svg"
   width="50"
   height="50"
   inkscape:export-filename="H:\Dropbox\11. RDS - le Dôme\!!! Bureau\Parcours Digital (en cours)\PDIG AuC\PROJET_BULLE\ARDUINO\BULLE\html\img\sprite\tempTh.png"
   inkscape:export-xdpi="115.2"
   inkscape:export-ydpi="115.2"
   inkscape:version="0.92.3 (2405546, 2018-03-11)">
  <metadata
     id="metadata22">
    <rdf:RDF>
      <cc:Work
         rdf:about="">
        <dc:format>image/svg+xml</dc:format>
        <dc:type
           rdf:resource="http://purl.org/dc/dcmitype/StillImage" />
        <dc:title>Chronometer Stop</dc:title>
      </cc:Work>
    </rdf:RDF>
  </metadata>
  <defs
     id="defs20" />
  <sodipodi:namedview
     pagecolor="#ffffff"
     bordercolor="#666666"
     borderopacity="1"
     objecttolerance="10"
     gridtolerance="10"
     guidetolerance="10"
     inkscape:pageopacity="0"
     inkscape:pageshadow="2"
     inkscape:window-width="1920"
     inkscape:window-height="1017"
     id="namedview18"
     showgrid="false"
     inkscape:zoom="7.1357478"
     inkscape:cx="-37.921744"
     inkscape:cy="16.682613"
     inkscape:window-x="1912"
     inkscape:window-y="-8"
     inkscape:window-maximized="1"
     inkscape:current-layer="svg16" />
  <title
     id="title2">Chronometer Stop</title>
  <path
     style="fill:none;stroke:#000000;stroke-width:0.7;stroke-linecap:butt;stroke-linejoin:miter;stroke-opacity:1;stroke-miterlimit:4;stroke-dasharray:none"
     d="M 5.6607514,44.339249 44.339249,5.6607515"
     id="path53"
     inkscape:connector-curvature="0" />
  <g
     id="g8"
     transform="matrix(0.35073232,0,0,0.35073232,15.262003,18.650311)"
     style="stroke-width:1.96971166">
    <path
       d="m 93.414,39.306 c -0.13,-0.284 -0.413,-0.467 -0.726,-0.467 H 68.503 c 1.588,-3.037 4.257,-5.061 10.415,-7.591 l -1.236,2.689 c -0.184,0.4 -0.008,0.875 0.393,1.059 0.107,0.05 0.221,0.073 0.332,0.073 0.303,0 0.592,-0.172 0.727,-0.465 l 2.07,-4.503 c 0.001,-0.002 0.001,-0.004 0.002,-0.007 0.003,-0.007 0.003,-0.015 0.006,-0.022 0.004,-0.007 0.009,-0.012 0.012,-0.02 0.014,-0.037 0.011,-0.075 0.019,-0.112 0.008,-0.034 0.021,-0.066 0.023,-0.102 0.003,-0.025 0.007,-0.048 0.007,-0.073 -10e-4,-0.052 -0.015,-0.101 -0.025,-0.151 -0.009,-0.043 -0.008,-0.087 -0.023,-0.128 -10e-4,-0.001 0,-0.003 -10e-4,-0.005 -0.002,-0.006 -0.008,-0.01 -0.01,-0.016 -0.021,-0.048 -0.053,-0.087 -0.082,-0.131 -0.024,-0.038 -0.042,-0.079 -0.073,-0.112 -0.006,-0.005 -0.011,-0.01 -0.017,-0.016 -0.036,-0.037 -0.084,-0.06 -0.127,-0.089 -0.001,0 -0.001,0 -0.001,0 -0.035,-0.024 -0.062,-0.056 -0.102,-0.074 -0.002,-10e-4 -0.005,0 -0.008,-0.002 -0.007,-0.003 -0.015,-0.004 -0.021,-0.007 -0.006,-0.003 -0.012,-0.009 -0.019,-0.012 L 75.813,27.13 c -0.413,-0.156 -0.874,0.048 -1.03,0.461 -0.158,0.412 0.049,0.873 0.46,1.03 l 3.045,1.163 c -7.075,2.928 -9.897,5.393 -11.558,9.055 H 51.897 C 53.3,34.151 55.943,30.465 64.101,26.878 l -1.313,3.179 c -0.169,0.407 0.025,0.874 0.433,1.042 0.1,0.041 0.203,0.061 0.305,0.061 0.313,0 0.61,-0.186 0.737,-0.494 l 2.054,-4.972 c 0.002,-0.005 0.001,-0.011 0.003,-0.016 0.031,-0.079 0.053,-0.162 0.057,-0.25 0,-0.009 -0.003,-0.017 -0.003,-0.026 0.001,-0.024 -0.005,-0.047 -0.006,-0.071 -0.006,-0.071 -0.02,-0.139 -0.042,-0.204 -0.01,-0.026 -0.019,-0.051 -0.03,-0.076 -0.033,-0.071 -0.076,-0.136 -0.129,-0.194 -0.01,-0.011 -0.016,-0.023 -0.026,-0.034 -0.056,-0.056 -0.12,-0.105 -0.192,-0.143 l -4.436,-2.303 c -0.395,-0.203 -0.874,-0.051 -1.076,0.341 -0.203,0.391 -0.051,0.873 0.34,1.076 l 2.919,1.515 c -9.234,4.01 -11.998,8.274 -13.462,13.528 h -12.63 c -0.21,0 -0.412,0.083 -0.562,0.231 L 20.139,55.806 c -0.23,0.228 -0.3,0.571 -0.177,0.871 0.123,0.299 0.415,0.494 0.738,0.494 h 24.19 c -4.154,6.968 -10.578,9.503 -10.644,9.527 -0.411,0.157 -0.618,0.618 -0.461,1.03 0.122,0.318 0.424,0.514 0.746,0.514 0.094,0 0.189,-0.017 0.283,-0.052 0.296,-0.112 7.307,-2.843 11.74,-10.685 0.06,-0.106 0.087,-0.221 0.096,-0.335 h 15.043 c -4.06,8.237 -11.469,11.169 -11.547,11.199 -0.411,0.157 -0.618,0.618 -0.461,1.03 0.122,0.318 0.424,0.514 0.746,0.514 0.094,0 0.189,-0.017 0.283,-0.052 0.351,-0.134 8.493,-3.332 12.745,-12.691 h 14.74 c 0.231,0 0.452,-0.101 0.604,-0.275 L 93.292,40.16 c 0.204,-0.237 0.252,-0.57 0.122,-0.854 z M 77.835,55.575 H 22.641 l 15.292,-15.14 h 11.896 c -0.249,1.079 -0.466,2.199 -0.693,3.367 -0.34,1.749 -0.691,3.558 -1.198,5.528 -0.11,0.427 0.147,0.862 0.574,0.972 0.066,0.017 0.133,0.025 0.199,0.025 0.355,0 0.68,-0.239 0.772,-0.6 0.519,-2.017 0.874,-3.849 1.219,-5.621 0.251,-1.293 0.488,-2.512 0.768,-3.671 h 14.623 c -0.556,1.602 -0.998,3.428 -1.52,5.587 -0.201,0.83 -0.414,1.712 -0.651,2.653 -0.107,0.427 0.152,0.861 0.579,0.969 0.065,0.017 0.131,0.024 0.196,0.024 0.356,0 0.682,-0.241 0.773,-0.604 0.238,-0.946 0.452,-1.833 0.653,-2.668 0.578,-2.392 1.045,-4.322 1.668,-5.961 h 23.148 z"
       id="path2"
       inkscape:connector-curvature="0"
       style="stroke-width:1.96971166" />
    <path
       d="m 40.294,70.861 c -6.905,5.65 -15.576,3.589 -15.663,3.567 -0.427,-0.104 -0.86,0.153 -0.967,0.582 -0.106,0.427 0.153,0.859 0.58,0.967 0.163,0.041 1.888,0.455 4.396,0.455 3.425,0 8.311,-0.774 12.664,-4.335 0.341,-0.279 0.392,-0.782 0.112,-1.123 -0.277,-0.341 -0.78,-0.391 -1.122,-0.113 z"
       id="path4"
       inkscape:connector-curvature="0"
       style="stroke-width:1.96971166" />
    <path
       d="M 30.759,62.433 C 30.586,62.027 30.117,61.838 29.711,62.013 15.582,68.055 8.585,59.883 8.293,59.532 8.013,59.192 7.511,59.144 7.171,59.423 6.83,59.702 6.781,60.205 7.06,60.546 c 0.082,0.1 2.038,2.447 5.911,3.979 1.752,0.693 4.08,1.277 6.949,1.277 2.923,0 6.409,-0.606 10.419,-2.322 0.406,-0.173 0.594,-0.642 0.42,-1.047 z"
       id="path6"
       inkscape:connector-curvature="0"
       style="stroke-width:1.96971166" />
  </g>
  <g
     id="g12"
     transform="matrix(0.496126,0,0,0.496126,-3.0672833,0.2102131)"
     style="stroke-width:1.24311185">
    <g
       id="g10"
       style="stroke-width:1.24311185">
      <path
         d="M 33,40.525 V 8 C 33,7.448 32.552,7 32,7 h -8 c -0.552,0 -1,0.448 -1,1 v 32.525 c -2.481,1.663 -4,4.476 -4,7.475 0,4.963 4.038,9 9,9 4.962,0 9,-4.037 9,-9 0,-2.999 -1.519,-5.812 -4,-7.475 z M 28,55 c -3.86,0 -7,-3.141 -7,-7 0,-2.484 1.342,-4.805 3.501,-6.056 C 24.81,41.766 25,41.436 25,41.079 V 9 h 6 v 32.079 c 0,0.356 0.19,0.687 0.499,0.865 C 33.658,43.195 35,45.516 35,48 c 0,3.859 -3.14,7 -7,7 z"
         id="path2-7"
         inkscape:connector-curvature="0"
         style="stroke-width:1.24311185" />
      <path
         d="m 40,17 h 4 c 0.553,0 1,-0.448 1,-1 0,-0.552 -0.447,-1 -1,-1 h -4 c -0.553,0 -1,0.448 -1,1 0,0.552 0.447,1 1,1 z"
         id="path4-8"
         inkscape:connector-curvature="0"
         style="stroke-width:1.24311185" />
      <path
         d="m 44,23 h -4 c -0.553,0 -1,0.448 -1,1 0,0.552 0.447,1 1,1 h 4 c 0.553,0 1,-0.448 1,-1 0,-0.552 -0.447,-1 -1,-1 z"
         id="path6-9"
         inkscape:connector-curvature="0"
         style="stroke-width:1.24311185" />
      <path
         d="m 44,31 h -4 c -0.553,0 -1,0.448 -1,1 0,0.552 0.447,1 1,1 h 4 c 0.553,0 1,-0.448 1,-1 0,-0.552 -0.447,-1 -1,-1 z"
         id="path8"
         inkscape:connector-curvature="0"
         style="stroke-width:1.24311185" />
    </g>
  </g>
</svg>
