<?xml version="1.0" encoding="UTF-8" standalone="no"?>
<svg
   xmlns:dc="http://purl.org/dc/elements/1.1/"
   xmlns:cc="http://creativecommons.org/ns#"
   xmlns:rdf="http://www.w3.org/1999/02/22-rdf-syntax-ns#"
   xmlns:svg="http://www.w3.org/2000/svg"
   xmlns="http://www.w3.org/2000/svg"
   xmlns:sodipodi="http://sodipodi.sourceforge.net/DTD/sodipodi-0.dtd"
   xmlns:inkscape="http://www.inkscape.org/namespaces/inkscape"
   version="1.1"
   x="0px"
   y="0px"
   viewBox="0 0 50 50"
   xml:space="preserve"
   id="svg30"
   sodipodi:docname="noun_bat seedlings_1974997.svg"
   width="50"
   height="50"
   inkscape:export-filename="H:\Dropbox\11. RDS - le Dôme\!!! Bureau\Parcours Digital (en cours)\PDIG AuC\PROJET_BULLE\ARDUINO\BULLE\html\img\sprite\watering.png"
   inkscape:export-xdpi="96"
   inkscape:export-ydpi="96"
   inkscape:version="0.92.3 (2405546, 2018-03-11)"><metadata
     id="metadata36"><rdf:RDF><cc:Work
         rdf:about=""><dc:format>image/svg+xml</dc:format><dc:type
           rdf:resource="http://purl.org/dc/dcmitype/StillImage" /><dc:title></dc:title></cc:Work></rdf:RDF></metadata><defs
     id="defs34" /><sodipodi:namedview
     pagecolor="#ffffff"
     bordercolor="#666666"
     borderopacity="1"
     objecttolerance="10"
     gridtolerance="10"
     guidetolerance="10"
     inkscape:pageopacity="0"
     inkscape:pageshadow="2"
     inkscape:window-width="1920"
     inkscape:window-height="1017"
     id="namedview32"
     showgrid="false"
     inkscape:zoom="3.776"
     inkscape:cx="9.5996996"
     inkscape:cy="78.503472"
     inkscape:window-x="3832"
     inkscape:window-y="-8"
     inkscape:window-maximized="1"
     inkscape:current-layer="svg30" /><g
     id="g881"
     transform="translate(-1.2990649,0.672105)"><g
       style="stroke-width:2.75222969"
       transform="matrix(0.36334177,0,0,0.36334177,-0.04948853,10.117094)"
       id="g24"><path
         style="stroke-width:2.75222969"
         inkscape:connector-curvature="0"
         id="path2"
         d="m 45.77759,59.25023 c -13.71237,0 -27.59482,-3.38189 -27.59482,-9.84581 0,-6.5003 13.88245,-9.90185 27.59482,-9.90185 13.71336,0 27.59482,3.40155 27.59482,9.90185 0,6.46392 -13.88146,9.84581 -27.59482,9.84581 z m 0,-16.37954 c -14.78888,0 -24.2267,3.86951 -24.2267,6.53373 0,2.64161 9.43782,6.47966 24.2267,6.47966 14.78888,0 24.22866,-3.83805 24.22866,-6.47966 1e-5,-2.66423 -9.43978,-6.53373 -24.22866,-6.53373 z" /><path
         style="stroke-width:2.75222969"
         inkscape:connector-curvature="0"
         id="path4"
         d="m 45.77562,51.08847 c -0.81106,0 -1.52578,-0.5879 -1.65948,-1.41371 -3.04567,-18.74883 5.08954,-31.5125 24.18147,-37.93514 0.88087,-0.29886 1.83645,0.17991 2.13335,1.05881 0.29493,0.88086 -0.17893,1.83644 -1.05979,2.13236 -17.53764,5.90061 -24.71235,17.08836 -21.93213,34.20327 0.14943,0.91822 -0.47386,1.78336 -1.39109,1.9318 -0.09143,0.01573 -0.18286,0.02261 -0.27233,0.02261 z" /><path
         style="stroke-width:2.75222969"
         inkscape:connector-curvature="0"
         id="path6"
         d="m 45.37845,40.30183 c -0.68621,0 -1.33014,-0.42273 -1.58083,-1.10403 C 39.57419,27.69447 33.73257,18.46899 26.43399,11.77895 25.74877,11.15074 25.70158,10.08604 26.33076,9.40082 26.95602,8.71363 28.02269,8.66841 28.7089,9.29759 c 7.69871,7.05674 13.83919,16.72658 18.25039,28.74014 0.32049,0.873 -0.1278,1.84038 -1.0008,2.16087 -0.19073,0.0698 -0.38735,0.10323 -0.58004,0.10323 z" /><path
         style="stroke-width:2.75222969"
         inkscape:connector-curvature="0"
         id="path8"
         d="m 60.67264,24.60751 c -0.82384,0 -1.54544,-0.60658 -1.66538,-1.44615 -0.13174,-0.92019 0.50925,-1.77353 1.42944,-1.90428 C 69.9866,19.89154 76.31781,15.80575 79.73312,8.78539 70.3995,5.06433 62.23185,7.37168 54.8035,15.81657 c -0.61149,0.69997 -1.67718,0.76584 -2.37715,0.15238 -0.69702,-0.61444 -0.76584,-1.67816 -0.1514,-2.37617 8.82043,-10.0267 19.04671,-12.45694 30.39372,-7.20715 0.81598,0.37653 1.19153,1.32818 0.8553,2.16087 -3.66109,9.02492 -11.26836,14.42217 -22.61145,16.04332 -0.08061,0.01179 -0.16123,0.01769 -0.23988,0.01769 z" /><path
         style="stroke-width:2.75222969"
         inkscape:connector-curvature="0"
         id="path10"
         d="m 31.5078,24.89261 c -0.28707,0 -0.57807,-0.07373 -0.84449,-0.22808 C 20.26499,18.61941 15.49299,10.92562 16.48003,1.79649 16.56458,1.01787 17.1741,0.40048 17.95174,0.3061 c 17.17291,-2.0832 22.07763,6.86602 23.15904,14.73972 0.12584,0.92117 -0.5181,1.77058 -1.43927,1.8974 -0.92314,0.12387 -1.77058,-0.51908 -1.8974,-1.43927 -1.2397,-9.02983 -7.15014,-12.96128 -18.04296,-11.9998 -0.25167,7.19143 3.89114,13.17166 12.62506,18.24843 0.8032,0.46796 1.0765,1.49825 0.60953,2.30244 -0.31262,0.53775 -0.87791,0.83759 -1.45794,0.83759 z" /><path
         style="stroke-width:2.75222969"
         inkscape:connector-curvature="0"
         id="path12"
         d="m 45.77759,67.98218 c -13.71237,0 -27.59482,-3.40155 -27.59482,-9.90185 0,-0.93002 0.75404,-1.68308 1.68406,-1.68308 0.93002,0 1.68406,0.75306 1.68406,1.68308 0,2.6013 9.66197,6.53569 24.2267,6.53569 14.78888,0 24.22866,-3.87147 24.22866,-6.53569 0,-0.93002 0.75306,-1.68308 1.68308,-1.68308 0.93002,0 1.68307,0.75306 1.68307,1.68308 1e-5,6.5003 -13.88145,9.90185 -27.59481,9.90185 z" /><path
         style="stroke-width:2.75222969"
         inkscape:connector-curvature="0"
         id="path14"
         d="m 71.68934,59.76341 c -0.93002,0 -1.68308,-0.75306 -1.68308,-1.68308 v -8.67592 c 0,-0.93002 0.75306,-1.68406 1.68308,-1.68406 0.93002,0 1.68307,0.75404 1.68307,1.68406 v 8.67592 c 0,0.93002 -0.75306,1.68308 -1.68307,1.68308 z" /><path
         style="stroke-width:2.75222969"
         inkscape:connector-curvature="0"
         id="path16"
         d="m 19.86683,59.76341 c -0.93002,0 -1.68406,-0.75306 -1.68406,-1.68308 v -8.67592 c 0,-0.93002 0.75404,-1.68406 1.68406,-1.68406 0.93002,0 1.68406,0.75404 1.68406,1.68406 v 8.67592 c 0,0.93002 -0.75404,1.68308 -1.68406,1.68308 z" /><path
         style="stroke-width:2.75222969"
         inkscape:connector-curvature="0"
         id="path18"
         d="m 45.77759,100 c -10.62444,0 -22.05895,-2.54428 -22.05895,-8.13226 0,-0.93002 0.75404,-1.68308 1.68406,-1.68308 0.93002,0 1.68406,0.75306 1.68406,1.68308 0,1.61819 6.59665,4.7661 18.69083,4.7661 12.0932,0 18.69181,-3.14791 18.69181,-4.7661 0,-0.93002 0.75306,-1.68308 1.68308,-1.68308 0.93002,0 1.68307,0.75306 1.68307,1.68308 C 67.83556,97.45572 56.40203,100 45.77759,100 Z" /><path
         style="stroke-width:2.75222969"
         inkscape:connector-curvature="0"
         id="path20"
         d="m 25.40074,93.55082 c -0.84842,0 -1.57789,-0.63902 -1.67226,-1.50219 L 20.41836,61.57036 c -0.10028,-0.92412 0.56824,-1.75386 1.49236,-1.85414 0.93297,-0.11207 1.75484,0.56627 1.85611,1.49236 l 3.31012,30.47828 c 0.10028,0.92412 -0.56824,1.75386 -1.49236,1.85413 -0.06195,0.0079 -0.1229,0.0098 -0.18385,0.0098 z" /><path
         style="stroke-width:2.75222969"
         inkscape:connector-curvature="0"
         id="path22"
         d="m 66.15444,93.55082 c -0.06095,0 -0.1219,-0.002 -0.18285,-0.0098 C 65.0455,93.44075 64.37895,92.611 64.47923,91.68689 l 3.3111,-30.47828 c 0.0983,-0.92412 0.94181,-1.61623 1.85413,-1.49236 0.92609,0.10028 1.59264,0.93002 1.49236,1.85414 l -3.3111,30.47827 c -0.09241,0.86317 -0.82384,1.50219 -1.67128,1.50219 z" /></g><path
       d="m 37.243793,20.332274 c 2,0 3.6,-1.6 3.6,-3.6 0,-1.8 -2.9,-5.100001 -3.2,-5.500001 l -0.4,-0.4 -0.4,0.4 c -0.3,0.3 -3.2,3.700001 -3.2,5.500001 0,2 1.6,3.6 3.6,3.6 z m 0,-8.000001 c 1.1,1.300001 2.6,3.400001 2.6,4.400001 0,1.4 -1.2,2.6 -2.6,2.6 -1.4,0 -2.6,-1.2 -2.6,-2.6 0,-1 1.5,-3 2.6,-4.400001 z"
       id="path2-5"
       inkscape:connector-curvature="0" /><path
       style="stroke-width:1"
       d="m 34.354342,10.380366 c 1.721231,0 3.098216,-1.376984 3.098216,-3.098215 0,-1.549108 -2.581846,-4.38914 -2.840031,-4.733386 L 34.268281,2.204519 33.924035,2.548765 c -0.258185,0.258185 -2.75397,3.184278 -2.75397,4.733386 0,1.721231 1.463046,3.098215 3.184277,3.098215 z m -0.08606,-6.884924 c 1.032738,1.1188 2.323662,2.926093 2.323662,3.786709 0,1.204861 -1.032739,2.2376 -2.237601,2.2376 -1.290923,0 -2.323662,-1.032739 -2.323662,-2.2376 0,-0.774554 1.290924,-2.581847 2.237601,-3.786709 z"
       id="path8-7"
       inkscape:connector-curvature="0" /><path
       style="stroke-width:1"
       d="m 43.607649,14.098517 c 1.721231,0 3.098216,-1.376984 3.098216,-3.098215 0,-1.549108 -2.581846,-4.38914 -2.840031,-4.733386 L 43.521588,5.92267 43.177342,6.266916 c -0.258185,0.258185 -2.75397,3.184278 -2.75397,4.733386 0,1.721231 1.463046,3.098215 3.184277,3.098215 z m -0.08606,-6.884924 c 1.032738,1.1188 2.323662,2.926093 2.323662,3.786709 0,1.204861 -1.032739,2.2376 -2.237601,2.2376 -1.290923,0 -2.323662,-1.032739 -2.323662,-2.2376 0,-0.774554 1.290924,-2.581847 2.237601,-3.786709 z"
       id="path8-7-5"
       inkscape:connector-curvature="0" /></g></svg>